<svg xmlns="http://www.w3.org/2000/svg" version="1.1" xmlns:xlink="http://www.w3.org/1999/xlink" xmlns:svgjs="http://svgjs.dev/svgjs" width="1440" height="560" preserveAspectRatio="none" viewBox="0 0 1440 560"><g mask="url(&quot;#SvgjsMask1658&quot;)" fill="none"><rect width="1440" height="560" x="0" y="0" fill="url(&quot;#SvgjsLinearGradient1659&quot;)"></rect><path d="M1440 0L957.26 0L1440 217.49z" fill="rgba(255, 255, 255, .1)"></path><path d="M957.26 0L1440 217.49L1440 407.35L684.52 0z" fill="rgba(255, 255, 255, .075)"></path><path d="M684.52 0L1440 407.35L1440 451.8L285.68 0z" fill="rgba(255, 255, 255, .05)"></path><path d="M285.68000000000006 0L1440 451.8L1440 460.67L209.94000000000005 0z" fill="rgba(255, 255, 255, .025)"></path><path d="M0 560L408.97 560L0 303.37z" fill="rgba(0, 0, 0, .1)"></path><path d="M0 303.37L408.97 560L599.0500000000001 560L0 187.79000000000002z" fill="rgba(0, 0, 0, .075)"></path><path d="M0 187.79000000000002L599.0500000000001 560L805.95 560L0 129.22000000000003z" fill="rgba(0, 0, 0, .05)"></path><path d="M0 129.22000000000003L805.95 560L1127.43 560L0 57.23000000000003z" fill="rgba(0, 0, 0, .025)"></path></g><defs><mask id="SvgjsMask1658"><rect width="1440" height="560" fill="#ffffff"></rect></mask><linearGradient x1="0%" y1="50%" x2="100%" y2="50%" gradientUnits="userSpaceOnUse" id="SvgjsLinearGradient1659"><stop stop-color="#0e2a47" offset="0"></stop><stop stop-color="rgba(0, 0, 0, 1)" offset="0"></stop></linearGradient></defs></svg>